<svg xmlns="http://www.w3.org/2000/svg" xmlns:xlink="http://www.w3.org/1999/xlink" width="760" height="1313" viewBox="0 0 760 1313">
<rect width="760" height="1313" rx="16" fill="#FAFAF8" stroke="#E8E6E1" stroke-width="1"/>
<defs>
<clipPath id="av0"><circle cx="84" cy="130" r="22"/></clipPath>
<clipPath id="av1"><circle cx="84" cy="206" r="22"/></clipPath>
<clipPath id="av2"><circle cx="84" cy="282" r="22"/></clipPath>
<clipPath id="av3"><circle cx="77" cy="376" r="15"/></clipPath>
<clipPath id="av4"><circle cx="77" cy="429" r="15"/></clipPath>
<clipPath id="av5"><circle cx="77" cy="482" r="15"/></clipPath>
<clipPath id="av6"><circle cx="77" cy="535" r="15"/></clipPath>
<clipPath id="av7"><circle cx="77" cy="588" r="15"/></clipPath>
<clipPath id="av8"><circle cx="77" cy="641" r="15"/></clipPath>
<clipPath id="av9"><circle cx="77" cy="694" r="15"/></clipPath>
<clipPath id="av10"><circle cx="77" cy="747" r="15"/></clipPath>
<clipPath id="av11"><circle cx="77" cy="800" r="15"/></clipPath>
<clipPath id="av12"><circle cx="77" cy="853" r="15"/></clipPath>
<clipPath id="av13"><circle cx="77" cy="906" r="15"/></clipPath>
<clipPath id="av14"><circle cx="77" cy="959" r="15"/></clipPath>
<clipPath id="av15"><circle cx="77" cy="1012" r="15"/></clipPath>
<clipPath id="av16"><circle cx="77" cy="1065" r="15"/></clipPath>
<clipPath id="av17"><circle cx="77" cy="1118" r="15"/></clipPath>
<clipPath id="av18"><circle cx="77" cy="1171" r="15"/></clipPath>
<clipPath id="av19"><circle cx="77" cy="1224" r="15"/></clipPath>
</defs>
<rect x="30" y="20" width="700" height="68" rx="12" fill="#7F77DD" opacity="0.09"/>
<text x="380" y="50" text-anchor="middle" font-family="system-ui,-apple-system,sans-serif" font-size="18" font-weight="700" fill="#3C3489">🏆  Contributor Leaderboard</text>
<text x="380" y="70" text-anchor="middle" font-family="system-ui,-apple-system,sans-serif" font-size="11" fill="#7F77DD">🤖 Auto-generated by GitHub Actions  ·  🕒 Last updated: 30 Mar 2026, 18:51 UTC</text>
<text x="380" y="86" text-anchor="middle" font-family="system-ui,-apple-system,sans-serif" font-size="11" fill="#7F77DD">Showing top 20 contributors  ·  125 repos  ·  40 total contributors</text>
<rect x="30" y="96" width="700" height="68" rx="12" fill="#EEEDFE" stroke="#AFA9EC" stroke-width="1.2"/>
<text x="46" y="138" font-family="system-ui,-apple-system,sans-serif" font-size="22">🥇</text>
<circle cx="84" cy="130" r="23" fill="#7F77DD" opacity="0.2"/>
<image href="https://avatars.githubusercontent.com/u/187507835?v=4&amp;s=88" x="62" y="108" width="44" height="44" clip-path="url(#av0)" preserveAspectRatio="xMidYMid slice"/>
<a href="https://github.com/gsantoshkumar1999" target="_blank"><text x="120" y="120" font-family="system-ui,-apple-system,sans-serif" font-size="15" font-weight="700" fill="#26215C">@gsantoshkumar1999</text></a>
<text x="120" y="139" font-family="system-ui,-apple-system,sans-serif" font-size="11" fill="#534AB7">37 repos contributed</text>
<rect x="120" y="150" width="230" height="5" rx="2.5" fill="#E0DEDB"/><rect x="120" y="150" width="230" height="5" rx="2.5" fill="#7F77DD" opacity="0.75"/>
<rect x="625" y="110" width="92" height="40" rx="10" fill="#7F77DD" opacity="0.14"/>
<text x="671" y="128" text-anchor="middle" font-family="system-ui,-apple-system,sans-serif" font-size="20" font-weight="800" fill="#26215C">597</text>
<text x="671" y="145" text-anchor="middle" font-family="system-ui,-apple-system,sans-serif" font-size="10" fill="#534AB7">commits</text>
<rect x="30" y="172" width="700" height="68" rx="12" fill="#E1F5EE" stroke="#5DCAA5" stroke-width="1.2"/>
<text x="46" y="214" font-family="system-ui,-apple-system,sans-serif" font-size="22">🥈</text>
<circle cx="84" cy="206" r="23" fill="#1D9E75" opacity="0.2"/>
<image href="https://avatars.githubusercontent.com/u/178778738?v=4&amp;s=88" x="62" y="184" width="44" height="44" clip-path="url(#av1)" preserveAspectRatio="xMidYMid slice"/>
<a href="https://github.com/sanyam-jain-2024" target="_blank"><text x="120" y="196" font-family="system-ui,-apple-system,sans-serif" font-size="15" font-weight="700" fill="#04342C">@sanyam-jain-2024</text></a>
<text x="120" y="215" font-family="system-ui,-apple-system,sans-serif" font-size="11" fill="#0F6E56">21 repos contributed</text>
<rect x="120" y="226" width="230" height="5" rx="2.5" fill="#E0DEDB"/><rect x="120" y="226" width="99" height="5" rx="2.5" fill="#1D9E75" opacity="0.75"/>
<rect x="625" y="186" width="92" height="40" rx="10" fill="#1D9E75" opacity="0.14"/>
<text x="671" y="204" text-anchor="middle" font-family="system-ui,-apple-system,sans-serif" font-size="20" font-weight="800" fill="#04342C">259</text>
<text x="671" y="221" text-anchor="middle" font-family="system-ui,-apple-system,sans-serif" font-size="10" fill="#0F6E56">commits</text>
<rect x="30" y="248" width="700" height="68" rx="12" fill="#FAECE7" stroke="#F0997B" stroke-width="1.2"/>
<text x="46" y="290" font-family="system-ui,-apple-system,sans-serif" font-size="22">🥉</text>
<circle cx="84" cy="282" r="23" fill="#D85A30" opacity="0.2"/>
<image href="https://avatars.githubusercontent.com/u/5390252?v=4&amp;s=88" x="62" y="260" width="44" height="44" clip-path="url(#av2)" preserveAspectRatio="xMidYMid slice"/>
<a href="https://github.com/Kondasamy" target="_blank"><text x="120" y="272" font-family="system-ui,-apple-system,sans-serif" font-size="15" font-weight="700" fill="#4A1B0C">@Kondasamy</text></a>
<text x="120" y="291" font-family="system-ui,-apple-system,sans-serif" font-size="11" fill="#993C1D">14 repos contributed</text>
<rect x="120" y="302" width="230" height="5" rx="2.5" fill="#E0DEDB"/><rect x="120" y="302" width="71" height="5" rx="2.5" fill="#D85A30" opacity="0.75"/>
<rect x="625" y="262" width="92" height="40" rx="10" fill="#D85A30" opacity="0.14"/>
<text x="671" y="280" text-anchor="middle" font-family="system-ui,-apple-system,sans-serif" font-size="20" font-weight="800" fill="#4A1B0C">186</text>
<text x="671" y="297" text-anchor="middle" font-family="system-ui,-apple-system,sans-serif" font-size="10" fill="#993C1D">commits</text>
<line x1="46" y1="338" x2="714" y2="338" stroke="#D3D1C7" stroke-width="1"/>
<rect x="30" y="352" width="700" height="48" rx="8" fill="#FAFAF8"/>
<text x="50" y="377" text-anchor="middle" dominant-baseline="middle" font-family="system-ui,sans-serif" font-size="11" font-weight="600" fill="#888780">#4</text>
<circle cx="77" cy="376" r="16" fill="#D3D1C7" opacity="0.45"/>
<image href="https://avatars.githubusercontent.com/u/178780351?v=4&amp;s=60" x="62" y="361" width="30" height="30" clip-path="url(#av3)" preserveAspectRatio="xMidYMid slice"/>
<a href="https://github.com/raamaa001" target="_blank"><text x="102" y="370" font-family="system-ui,-apple-system,sans-serif" font-size="13" font-weight="600" fill="#2C2C2A">@raamaa001</text></a>
<text x="102" y="386" font-family="system-ui,-apple-system,sans-serif" font-size="10" fill="#888780">9 repos</text>
<rect x="102" y="396" width="190" height="5" rx="2.5" fill="#E0DEDB"/><rect x="102" y="396" width="43" height="5" rx="2.5" fill="#B4B2A9" opacity="0.75"/>
<text x="718" y="371" text-anchor="end" font-family="system-ui,-apple-system,sans-serif" font-size="15" font-weight="700" fill="#2C2C2A">137</text>
<text x="718" y="388" text-anchor="end" font-family="system-ui,-apple-system,sans-serif" font-size="10" fill="#888780">commits</text>
<rect x="30" y="405" width="700" height="48" rx="8" fill="#F3F1ED"/>
<text x="50" y="430" text-anchor="middle" dominant-baseline="middle" font-family="system-ui,sans-serif" font-size="11" font-weight="600" fill="#888780">#5</text>
<circle cx="77" cy="429" r="16" fill="#D3D1C7" opacity="0.45"/>
<image href="https://avatars.githubusercontent.com/u/188013627?v=4&amp;s=60" x="62" y="414" width="30" height="30" clip-path="url(#av4)" preserveAspectRatio="xMidYMid slice"/>
<a href="https://github.com/Hemalatha-CloudAmbassadors" target="_blank"><text x="102" y="423" font-family="system-ui,-apple-system,sans-serif" font-size="13" font-weight="600" fill="#2C2C2A">@Hemalatha-CloudAmbassadors</text></a>
<text x="102" y="439" font-family="system-ui,-apple-system,sans-serif" font-size="10" fill="#888780">8 repos</text>
<rect x="102" y="449" width="190" height="5" rx="2.5" fill="#E0DEDB"/><rect x="102" y="449" width="38" height="5" rx="2.5" fill="#B4B2A9" opacity="0.75"/>
<text x="718" y="424" text-anchor="end" font-family="system-ui,-apple-system,sans-serif" font-size="15" font-weight="700" fill="#2C2C2A">122</text>
<text x="718" y="441" text-anchor="end" font-family="system-ui,-apple-system,sans-serif" font-size="10" fill="#888780">commits</text>
<rect x="30" y="458" width="700" height="48" rx="8" fill="#FAFAF8"/>
<text x="50" y="483" text-anchor="middle" dominant-baseline="middle" font-family="system-ui,sans-serif" font-size="11" font-weight="600" fill="#888780">#6</text>
<circle cx="77" cy="482" r="16" fill="#D3D1C7" opacity="0.45"/>
<image href="https://avatars.githubusercontent.com/u/191213392?v=4&amp;s=60" x="62" y="467" width="30" height="30" clip-path="url(#av5)" preserveAspectRatio="xMidYMid slice"/>
<a href="https://github.com/raagavvca" target="_blank"><text x="102" y="476" font-family="system-ui,-apple-system,sans-serif" font-size="13" font-weight="600" fill="#2C2C2A">@raagavvca</text></a>
<text x="102" y="492" font-family="system-ui,-apple-system,sans-serif" font-size="10" fill="#888780">4 repos</text>
<rect x="102" y="502" width="190" height="5" rx="2.5" fill="#E0DEDB"/><rect x="102" y="502" width="28" height="5" rx="2.5" fill="#B4B2A9" opacity="0.75"/>
<text x="718" y="477" text-anchor="end" font-family="system-ui,-apple-system,sans-serif" font-size="15" font-weight="700" fill="#2C2C2A">90</text>
<text x="718" y="494" text-anchor="end" font-family="system-ui,-apple-system,sans-serif" font-size="10" fill="#888780">commits</text>
<rect x="30" y="511" width="700" height="48" rx="8" fill="#F3F1ED"/>
<text x="50" y="536" text-anchor="middle" dominant-baseline="middle" font-family="system-ui,sans-serif" font-size="11" font-weight="600" fill="#888780">#7</text>
<circle cx="77" cy="535" r="16" fill="#D3D1C7" opacity="0.45"/>
<image href="https://avatars.githubusercontent.com/u/208438085?v=4&amp;s=60" x="62" y="520" width="30" height="30" clip-path="url(#av6)" preserveAspectRatio="xMidYMid slice"/>
<a href="https://github.com/mansiverma-cloudambassadors" target="_blank"><text x="102" y="529" font-family="system-ui,-apple-system,sans-serif" font-size="13" font-weight="600" fill="#2C2C2A">@mansiverma-cloudambassadors</text></a>
<text x="102" y="545" font-family="system-ui,-apple-system,sans-serif" font-size="10" fill="#888780">2 repos</text>
<rect x="102" y="555" width="190" height="5" rx="2.5" fill="#E0DEDB"/><rect x="102" y="555" width="25" height="5" rx="2.5" fill="#B4B2A9" opacity="0.75"/>
<text x="718" y="530" text-anchor="end" font-family="system-ui,-apple-system,sans-serif" font-size="15" font-weight="700" fill="#2C2C2A">81</text>
<text x="718" y="547" text-anchor="end" font-family="system-ui,-apple-system,sans-serif" font-size="10" fill="#888780">commits</text>
<rect x="30" y="564" width="700" height="48" rx="8" fill="#FAFAF8"/>
<text x="50" y="589" text-anchor="middle" dominant-baseline="middle" font-family="system-ui,sans-serif" font-size="11" font-weight="600" fill="#888780">#8</text>
<circle cx="77" cy="588" r="16" fill="#D3D1C7" opacity="0.45"/>
<image href="https://avatars.githubusercontent.com/u/178779615?v=4&amp;s=60" x="62" y="573" width="30" height="30" clip-path="url(#av7)" preserveAspectRatio="xMidYMid slice"/>
<a href="https://github.com/brjshmhwr" target="_blank"><text x="102" y="582" font-family="system-ui,-apple-system,sans-serif" font-size="13" font-weight="600" fill="#2C2C2A">@brjshmhwr</text></a>
<text x="102" y="598" font-family="system-ui,-apple-system,sans-serif" font-size="10" fill="#888780">6 repos</text>
<rect x="102" y="608" width="190" height="5" rx="2.5" fill="#E0DEDB"/><rect x="102" y="608" width="20" height="5" rx="2.5" fill="#B4B2A9" opacity="0.75"/>
<text x="718" y="583" text-anchor="end" font-family="system-ui,-apple-system,sans-serif" font-size="15" font-weight="700" fill="#2C2C2A">65</text>
<text x="718" y="600" text-anchor="end" font-family="system-ui,-apple-system,sans-serif" font-size="10" fill="#888780">commits</text>
<rect x="30" y="617" width="700" height="48" rx="8" fill="#F3F1ED"/>
<text x="50" y="642" text-anchor="middle" dominant-baseline="middle" font-family="system-ui,sans-serif" font-size="11" font-weight="600" fill="#888780">#9</text>
<circle cx="77" cy="641" r="16" fill="#D3D1C7" opacity="0.45"/>
<image href="https://avatars.githubusercontent.com/u/185168726?v=4&amp;s=60" x="62" y="626" width="30" height="30" clip-path="url(#av8)" preserveAspectRatio="xMidYMid slice"/>
<a href="https://github.com/chjaswanth-cloud-ambassadors" target="_blank"><text x="102" y="635" font-family="system-ui,-apple-system,sans-serif" font-size="13" font-weight="600" fill="#2C2C2A">@chjaswanth-cloud-ambassadors</text></a>
<text x="102" y="651" font-family="system-ui,-apple-system,sans-serif" font-size="10" fill="#888780">1 repos</text>
<rect x="102" y="661" width="190" height="5" rx="2.5" fill="#E0DEDB"/><rect x="102" y="661" width="19" height="5" rx="2.5" fill="#B4B2A9" opacity="0.75"/>
<text x="718" y="636" text-anchor="end" font-family="system-ui,-apple-system,sans-serif" font-size="15" font-weight="700" fill="#2C2C2A">62</text>
<text x="718" y="653" text-anchor="end" font-family="system-ui,-apple-system,sans-serif" font-size="10" fill="#888780">commits</text>
<rect x="30" y="670" width="700" height="48" rx="8" fill="#FAFAF8"/>
<text x="50" y="695" text-anchor="middle" dominant-baseline="middle" font-family="system-ui,sans-serif" font-size="11" font-weight="600" fill="#888780">#10</text>
<circle cx="77" cy="694" r="16" fill="#D3D1C7" opacity="0.45"/>
<image href="https://avatars.githubusercontent.com/u/201597510?v=4&amp;s=60" x="62" y="679" width="30" height="30" clip-path="url(#av9)" preserveAspectRatio="xMidYMid slice"/>
<a href="https://github.com/SahilAmbassador" target="_blank"><text x="102" y="688" font-family="system-ui,-apple-system,sans-serif" font-size="13" font-weight="600" fill="#2C2C2A">@SahilAmbassador</text></a>
<text x="102" y="704" font-family="system-ui,-apple-system,sans-serif" font-size="10" fill="#888780">8 repos</text>
<rect x="102" y="714" width="190" height="5" rx="2.5" fill="#E0DEDB"/><rect x="102" y="714" width="19" height="5" rx="2.5" fill="#B4B2A9" opacity="0.75"/>
<text x="718" y="689" text-anchor="end" font-family="system-ui,-apple-system,sans-serif" font-size="15" font-weight="700" fill="#2C2C2A">61</text>
<text x="718" y="706" text-anchor="end" font-family="system-ui,-apple-system,sans-serif" font-size="10" fill="#888780">commits</text>
<rect x="30" y="723" width="700" height="48" rx="8" fill="#F3F1ED"/>
<text x="50" y="748" text-anchor="middle" dominant-baseline="middle" font-family="system-ui,sans-serif" font-size="11" font-weight="600" fill="#888780">#11</text>
<circle cx="77" cy="747" r="16" fill="#D3D1C7" opacity="0.45"/>
<image href="https://avatars.githubusercontent.com/u/259091560?v=4&amp;s=60" x="62" y="732" width="30" height="30" clip-path="url(#av10)" preserveAspectRatio="xMidYMid slice"/>
<a href="https://github.com/hsb47" target="_blank"><text x="102" y="741" font-family="system-ui,-apple-system,sans-serif" font-size="13" font-weight="600" fill="#2C2C2A">@hsb47</text></a>
<text x="102" y="757" font-family="system-ui,-apple-system,sans-serif" font-size="10" fill="#888780">1 repos</text>
<rect x="102" y="767" width="190" height="5" rx="2.5" fill="#E0DEDB"/><rect x="102" y="767" width="16" height="5" rx="2.5" fill="#B4B2A9" opacity="0.75"/>
<text x="718" y="742" text-anchor="end" font-family="system-ui,-apple-system,sans-serif" font-size="15" font-weight="700" fill="#2C2C2A">53</text>
<text x="718" y="759" text-anchor="end" font-family="system-ui,-apple-system,sans-serif" font-size="10" fill="#888780">commits</text>
<rect x="30" y="776" width="700" height="48" rx="8" fill="#FAFAF8"/>
<text x="50" y="801" text-anchor="middle" dominant-baseline="middle" font-family="system-ui,sans-serif" font-size="11" font-weight="600" fill="#888780">#12</text>
<circle cx="77" cy="800" r="16" fill="#D3D1C7" opacity="0.45"/>
<image href="https://avatars.githubusercontent.com/u/177813561?v=4&amp;s=60" x="62" y="785" width="30" height="30" clip-path="url(#av11)" preserveAspectRatio="xMidYMid slice"/>
<a href="https://github.com/manumohan-cloud" target="_blank"><text x="102" y="794" font-family="system-ui,-apple-system,sans-serif" font-size="13" font-weight="600" fill="#2C2C2A">@manumohan-cloud</text></a>
<text x="102" y="810" font-family="system-ui,-apple-system,sans-serif" font-size="10" fill="#888780">8 repos</text>
<rect x="102" y="820" width="190" height="5" rx="2.5" fill="#E0DEDB"/><rect x="102" y="820" width="15" height="5" rx="2.5" fill="#B4B2A9" opacity="0.75"/>
<text x="718" y="795" text-anchor="end" font-family="system-ui,-apple-system,sans-serif" font-size="15" font-weight="700" fill="#2C2C2A">49</text>
<text x="718" y="812" text-anchor="end" font-family="system-ui,-apple-system,sans-serif" font-size="10" fill="#888780">commits</text>
<rect x="30" y="829" width="700" height="48" rx="8" fill="#F3F1ED"/>
<text x="50" y="854" text-anchor="middle" dominant-baseline="middle" font-family="system-ui,sans-serif" font-size="11" font-weight="600" fill="#888780">#13</text>
<circle cx="77" cy="853" r="16" fill="#D3D1C7" opacity="0.45"/>
<image href="https://avatars.githubusercontent.com/u/204661820?v=4&amp;s=60" x="62" y="838" width="30" height="30" clip-path="url(#av12)" preserveAspectRatio="xMidYMid slice"/>
<a href="https://github.com/Gopika-Gayatri" target="_blank"><text x="102" y="847" font-family="system-ui,-apple-system,sans-serif" font-size="13" font-weight="600" fill="#2C2C2A">@Gopika-Gayatri</text></a>
<text x="102" y="863" font-family="system-ui,-apple-system,sans-serif" font-size="10" fill="#888780">2 repos</text>
<rect x="102" y="873" width="190" height="5" rx="2.5" fill="#E0DEDB"/><rect x="102" y="873" width="14" height="5" rx="2.5" fill="#B4B2A9" opacity="0.75"/>
<text x="718" y="848" text-anchor="end" font-family="system-ui,-apple-system,sans-serif" font-size="15" font-weight="700" fill="#2C2C2A">47</text>
<text x="718" y="865" text-anchor="end" font-family="system-ui,-apple-system,sans-serif" font-size="10" fill="#888780">commits</text>
<rect x="30" y="882" width="700" height="48" rx="8" fill="#FAFAF8"/>
<text x="50" y="907" text-anchor="middle" dominant-baseline="middle" font-family="system-ui,sans-serif" font-size="11" font-weight="600" fill="#888780">#14</text>
<circle cx="77" cy="906" r="16" fill="#D3D1C7" opacity="0.45"/>
<image href="https://avatars.githubusercontent.com/u/191217895?v=4&amp;s=60" x="62" y="891" width="30" height="30" clip-path="url(#av13)" preserveAspectRatio="xMidYMid slice"/>
<a href="https://github.com/yuvraj-ca-1729" target="_blank"><text x="102" y="900" font-family="system-ui,-apple-system,sans-serif" font-size="13" font-weight="600" fill="#2C2C2A">@yuvraj-ca-1729</text></a>
<text x="102" y="916" font-family="system-ui,-apple-system,sans-serif" font-size="10" fill="#888780">5 repos</text>
<rect x="102" y="926" width="190" height="5" rx="2.5" fill="#E0DEDB"/><rect x="102" y="926" width="13" height="5" rx="2.5" fill="#B4B2A9" opacity="0.75"/>
<text x="718" y="901" text-anchor="end" font-family="system-ui,-apple-system,sans-serif" font-size="15" font-weight="700" fill="#2C2C2A">41</text>
<text x="718" y="918" text-anchor="end" font-family="system-ui,-apple-system,sans-serif" font-size="10" fill="#888780">commits</text>
<rect x="30" y="935" width="700" height="48" rx="8" fill="#F3F1ED"/>
<text x="50" y="960" text-anchor="middle" dominant-baseline="middle" font-family="system-ui,sans-serif" font-size="11" font-weight="600" fill="#888780">#15</text>
<circle cx="77" cy="959" r="16" fill="#D3D1C7" opacity="0.45"/>
<image href="https://avatars.githubusercontent.com/u/131259342?v=4&amp;s=60" x="62" y="944" width="30" height="30" clip-path="url(#av14)" preserveAspectRatio="xMidYMid slice"/>
<a href="https://github.com/raagavramki" target="_blank"><text x="102" y="953" font-family="system-ui,-apple-system,sans-serif" font-size="13" font-weight="600" fill="#2C2C2A">@raagavramki</text></a>
<text x="102" y="969" font-family="system-ui,-apple-system,sans-serif" font-size="10" fill="#888780">1 repos</text>
<rect x="102" y="979" width="190" height="5" rx="2.5" fill="#E0DEDB"/><rect x="102" y="979" width="12" height="5" rx="2.5" fill="#B4B2A9" opacity="0.75"/>
<text x="718" y="954" text-anchor="end" font-family="system-ui,-apple-system,sans-serif" font-size="15" font-weight="700" fill="#2C2C2A">38</text>
<text x="718" y="971" text-anchor="end" font-family="system-ui,-apple-system,sans-serif" font-size="10" fill="#888780">commits</text>
<rect x="30" y="988" width="700" height="48" rx="8" fill="#FAFAF8"/>
<text x="50" y="1013" text-anchor="middle" dominant-baseline="middle" font-family="system-ui,sans-serif" font-size="11" font-weight="600" fill="#888780">#16</text>
<circle cx="77" cy="1012" r="16" fill="#D3D1C7" opacity="0.45"/>
<image href="https://avatars.githubusercontent.com/u/148077222?v=4&amp;s=60" x="62" y="997" width="30" height="30" clip-path="url(#av15)" preserveAspectRatio="xMidYMid slice"/>
<a href="https://github.com/Gopikaa27" target="_blank"><text x="102" y="1006" font-family="system-ui,-apple-system,sans-serif" font-size="13" font-weight="600" fill="#2C2C2A">@Gopikaa27</text></a>
<text x="102" y="1022" font-family="system-ui,-apple-system,sans-serif" font-size="10" fill="#888780">3 repos</text>
<rect x="102" y="1032" width="190" height="5" rx="2.5" fill="#E0DEDB"/><rect x="102" y="1032" width="11" height="5" rx="2.5" fill="#B4B2A9" opacity="0.75"/>
<text x="718" y="1007" text-anchor="end" font-family="system-ui,-apple-system,sans-serif" font-size="15" font-weight="700" fill="#2C2C2A">36</text>
<text x="718" y="1024" text-anchor="end" font-family="system-ui,-apple-system,sans-serif" font-size="10" fill="#888780">commits</text>
<rect x="30" y="1041" width="700" height="48" rx="8" fill="#F3F1ED"/>
<text x="50" y="1066" text-anchor="middle" dominant-baseline="middle" font-family="system-ui,sans-serif" font-size="11" font-weight="600" fill="#888780">#17</text>
<circle cx="77" cy="1065" r="16" fill="#D3D1C7" opacity="0.45"/>
<image href="https://avatars.githubusercontent.com/u/141653546?v=4&amp;s=60" x="62" y="1050" width="30" height="30" clip-path="url(#av16)" preserveAspectRatio="xMidYMid slice"/>
<a href="https://github.com/pavan5779" target="_blank"><text x="102" y="1059" font-family="system-ui,-apple-system,sans-serif" font-size="13" font-weight="600" fill="#2C2C2A">@pavan5779</text></a>
<text x="102" y="1075" font-family="system-ui,-apple-system,sans-serif" font-size="10" fill="#888780">1 repos</text>
<rect x="102" y="1085" width="190" height="5" rx="2.5" fill="#E0DEDB"/><rect x="102" y="1085" width="8" height="5" rx="2.5" fill="#B4B2A9" opacity="0.75"/>
<text x="718" y="1060" text-anchor="end" font-family="system-ui,-apple-system,sans-serif" font-size="15" font-weight="700" fill="#2C2C2A">27</text>
<text x="718" y="1077" text-anchor="end" font-family="system-ui,-apple-system,sans-serif" font-size="10" fill="#888780">commits</text>
<rect x="30" y="1094" width="700" height="48" rx="8" fill="#FAFAF8"/>
<text x="50" y="1119" text-anchor="middle" dominant-baseline="middle" font-family="system-ui,sans-serif" font-size="11" font-weight="600" fill="#888780">#18</text>
<circle cx="77" cy="1118" r="16" fill="#D3D1C7" opacity="0.45"/>
<image href="https://avatars.githubusercontent.com/u/149491411?v=4&amp;s=60" x="62" y="1103" width="30" height="30" clip-path="url(#av17)" preserveAspectRatio="xMidYMid slice"/>
<a href="https://github.com/hiteshchandra44" target="_blank"><text x="102" y="1112" font-family="system-ui,-apple-system,sans-serif" font-size="13" font-weight="600" fill="#2C2C2A">@hiteshchandra44</text></a>
<text x="102" y="1128" font-family="system-ui,-apple-system,sans-serif" font-size="10" fill="#888780">8 repos</text>
<rect x="102" y="1138" width="190" height="5" rx="2.5" fill="#E0DEDB"/><rect x="102" y="1138" width="7" height="5" rx="2.5" fill="#B4B2A9" opacity="0.75"/>
<text x="718" y="1113" text-anchor="end" font-family="system-ui,-apple-system,sans-serif" font-size="15" font-weight="700" fill="#2C2C2A">24</text>
<text x="718" y="1130" text-anchor="end" font-family="system-ui,-apple-system,sans-serif" font-size="10" fill="#888780">commits</text>
<rect x="30" y="1147" width="700" height="48" rx="8" fill="#F3F1ED"/>
<text x="50" y="1172" text-anchor="middle" dominant-baseline="middle" font-family="system-ui,sans-serif" font-size="11" font-weight="600" fill="#888780">#19</text>
<circle cx="77" cy="1171" r="16" fill="#D3D1C7" opacity="0.45"/>
<image href="https://avatars.githubusercontent.com/u/223609323?v=4&amp;s=60" x="62" y="1156" width="30" height="30" clip-path="url(#av18)" preserveAspectRatio="xMidYMid slice"/>
<a href="https://github.com/Dineshd02" target="_blank"><text x="102" y="1165" font-family="system-ui,-apple-system,sans-serif" font-size="13" font-weight="600" fill="#2C2C2A">@Dineshd02</text></a>
<text x="102" y="1181" font-family="system-ui,-apple-system,sans-serif" font-size="10" fill="#888780">2 repos</text>
<rect x="102" y="1191" width="190" height="5" rx="2.5" fill="#E0DEDB"/><rect x="102" y="1191" width="7" height="5" rx="2.5" fill="#B4B2A9" opacity="0.75"/>
<text x="718" y="1166" text-anchor="end" font-family="system-ui,-apple-system,sans-serif" font-size="15" font-weight="700" fill="#2C2C2A">24</text>
<text x="718" y="1183" text-anchor="end" font-family="system-ui,-apple-system,sans-serif" font-size="10" fill="#888780">commits</text>
<rect x="30" y="1200" width="700" height="48" rx="8" fill="#FAFAF8"/>
<text x="50" y="1225" text-anchor="middle" dominant-baseline="middle" font-family="system-ui,sans-serif" font-size="11" font-weight="600" fill="#888780">#20</text>
<circle cx="77" cy="1224" r="16" fill="#D3D1C7" opacity="0.45"/>
<image href="https://avatars.githubusercontent.com/u/198076872?v=4&amp;s=60" x="62" y="1209" width="30" height="30" clip-path="url(#av19)" preserveAspectRatio="xMidYMid slice"/>
<a href="https://github.com/PratyushJena123" target="_blank"><text x="102" y="1218" font-family="system-ui,-apple-system,sans-serif" font-size="13" font-weight="600" fill="#2C2C2A">@PratyushJena123</text></a>
<text x="102" y="1234" font-family="system-ui,-apple-system,sans-serif" font-size="10" fill="#888780">2 repos</text>
<rect x="102" y="1244" width="190" height="5" rx="2.5" fill="#E0DEDB"/><rect x="102" y="1244" width="6" height="5" rx="2.5" fill="#B4B2A9" opacity="0.75"/>
<text x="718" y="1219" text-anchor="end" font-family="system-ui,-apple-system,sans-serif" font-size="15" font-weight="700" fill="#2C2C2A">20</text>
<text x="718" y="1236" text-anchor="end" font-family="system-ui,-apple-system,sans-serif" font-size="10" fill="#888780">commits</text>
<text x="380" y="1269" text-anchor="middle" font-family="system-ui,-apple-system,sans-serif" font-size="10" fill="#C4C2BC">Only human contributors counted  ·  Forks excluded  ·  Bots filtered</text>
<text x="380" y="1287" text-anchor="middle" font-family="system-ui,-apple-system,sans-serif" font-size="10" fill="#C4C2BC">Refreshes every Monday at midnight UTC via GitHub Actions</text>
</svg>